<?xml version="1.0" encoding="utf-8"?>
<!-- Generator: Adobe Illustrator 21.0.2, SVG Export Plug-In . SVG Version: 6.00 Build 0)  -->
<svg version="1.1" id="Layer_1" xmlns="http://www.w3.org/2000/svg" xmlns:xlink="http://www.w3.org/1999/xlink" x="0px" y="0px"
	 width="67.3px" height="19.5px" viewBox="0 0 67.3 19.5" style="enable-background:new 0 0 67.3 19.5;" xml:space="preserve">
<style type="text/css">
	.st0{fill:#DBDBDB;}
</style>
<g>
	<path class="st0" d="M16.7,14.3c-0.5,1-0.7,1.5-1.3,2.4c-0.8,1.3-2,2.8-3.4,2.8c-1.3,0-1.6-0.8-3.3-0.8c-1.7,0-2.1,0.8-3.4,0.8
		c-1.4,0-2.5-1.4-3.4-2.7C-0.3,13.3-0.5,9.2,0.9,7c1-1.5,2.6-2.5,4.1-2.5c1.5,0,2.5,0.8,3.7,0.8c1.2,0,2-0.8,3.7-0.8
		c1.3,0,2.7,0.7,3.7,2C12.9,8.3,13.4,13,16.7,14.3L16.7,14.3z"/>
	<path class="st0" d="M11.1,3.2c0.6-0.8,1.1-2,0.9-3.2c-1,0.1-2.3,0.7-3,1.6c-0.6,0.8-1.2,1.9-1,3.1C9.2,4.7,10.4,4,11.1,3.2z"/>
	<g>
		<path class="st0" d="M22.6,8.7c0,0.7-0.5,1.3-1.4,1.3c-0.8,0-1.4-0.6-1.3-1.3c0-0.7,0.5-1.3,1.4-1.3S22.5,8,22.6,8.7z M19.9,19.3
			V11h2.6v8.3H19.9z M26.8,10.1h-3.1V7.9h8.7v2.2h-3.1v9.2h-2.6L26.8,10.1z M40.7,16.6c0,1.1,0,2,0.1,2.7h-2.2l-0.1-1.2h-0.1
			c-0.3,0.5-1.1,1.4-2.6,1.4c-1.7,0-2.9-1-2.9-3.6V11h2.6v4.4c0,1.2,0.4,1.9,1.3,1.9c0.7,0,1.1-0.5,1.3-0.9c0.1-0.2,0.1-0.4,0.1-0.6
			V11h2.6L40.7,16.6L40.7,16.6L40.7,16.6z M42.7,13.7c0-1,0-1.9-0.1-2.6h2.2l0.1,1.1H45c0.3-0.5,1.2-1.3,2.5-1.3c1.7,0,3,1.1,3,3.5
			v4.9H48v-4.6c0-1.1-0.4-1.8-1.3-1.8c-0.7,0-1.1,0.5-1.3,1c-0.1,0.2-0.1,0.4-0.1,0.6v4.8h-2.6L42.7,13.7L42.7,13.7L42.7,13.7z
			 M54.6,16c0.1,1.1,1.1,1.6,2.3,1.6c0.9,0,1.6-0.1,2.3-0.3l0.3,1.7c-0.8,0.3-1.9,0.5-3,0.5c-2.8,0-4.4-1.6-4.4-4.2
			c0-2.1,1.3-4.4,4.2-4.4c2.7,0,3.7,2.1,3.7,4.1c0,0.4-0.1,0.8-0.1,1L54.6,16L54.6,16z M57.6,14.2c0-0.6-0.3-1.7-1.5-1.7
			c-1.1,0-1.5,1-1.6,1.7H57.6z M61.5,17c0.5,0.3,1.5,0.6,2.2,0.6c0.8,0,1.1-0.3,1.1-0.7c0-0.4-0.3-0.6-1.2-0.9
			c-1.7-0.6-2.4-1.5-2.3-2.5c0-1.6,1.3-2.7,3.4-2.7c1,0,1.8,0.2,2.3,0.5l-0.5,1.8c-0.4-0.2-1.1-0.5-1.8-0.5c-0.6,0-1,0.3-1,0.7
			c0,0.4,0.3,0.6,1.3,0.9c1.6,0.5,2.2,1.3,2.2,2.5c0,1.5-1.2,2.7-3.6,2.7c-1.1,0-2-0.3-2.7-0.6L61.5,17L61.5,17z"/>
	</g>
</g>
</svg>
