<?xml version="1.0" encoding="utf-8"?>
<!-- Generator: Adobe Illustrator 21.0.2, SVG Export Plug-In . SVG Version: 6.00 Build 0)  -->
<svg version="1.1" id="Layer_1" xmlns="http://www.w3.org/2000/svg" xmlns:xlink="http://www.w3.org/1999/xlink" x="0px" y="0px"
	 width="151.1px" height="151.1px" viewBox="0 0 151.1 151.1" style="enable-background:new 0 0 151.1 151.1;" xml:space="preserve"
	>
<style type="text/css">
	.st0{fill:#FFFFFF;}
	.st1{fill:#0066CC;}
	.st2{display:none;}
	.st3{display:inline;fill:#FFFFFF;}
</style>
<g>
	<circle class="st0" cx="75.5" cy="75.5" r="70.5"/>
	<path class="st1" d="M75.5,151.1C33.9,151.1,0,117.2,0,75.5C0,33.9,33.9,0,75.5,0s75.5,33.9,75.5,75.5
		C151.1,117.2,117.2,151.1,75.5,151.1z M75.5,10C39.4,10,10,39.4,10,75.5c0,36.1,29.4,65.5,65.5,65.5s65.5-29.4,65.5-65.5
		C141.1,39.4,111.7,10,75.5,10z"/>
</g>
<g class="st2">
	<polygon class="st3" points="119.1,75.5 54.7,38.3 54.7,112.8 	"/>
	<path class="st1" d="M49.7,121.4V29.7l79.5,45.9L49.7,121.4z M59.7,47v57.1l49.5-28.6L59.7,47z"/>
</g>
<rect x="55.6" y="44.3" class="st1" width="9.9" height="62.5"/>
<rect x="85.6" y="44.3" class="st1" width="9.9" height="62.5"/>
</svg>
