<?xml version="1.0" encoding="utf-8"?>
<!-- Generator: Adobe Illustrator 21.0.2, SVG Export Plug-In . SVG Version: 6.00 Build 0)  -->
<svg version="1.1" id="Layer_1" xmlns="http://www.w3.org/2000/svg" xmlns:xlink="http://www.w3.org/1999/xlink" x="0px" y="0px"
	 width="46.6px" height="21.5px" viewBox="0 0 46.6 21.5" style="enable-background:new 0 0 46.6 21.5;" xml:space="preserve">
<style type="text/css">
	.st0{fill:#DBDBDB;}
</style>
<path class="st0" d="M0.5,12.9c-0.1,0-0.2,0.1-0.2,0.2L0,15.8l0.3,2.7c0,0.1,0.1,0.2,0.2,0.2c0.1,0,0.2-0.1,0.2-0.2v0v0l0.4-2.7
	l-0.4-2.8C0.7,13,0.6,12.9,0.5,12.9L0.5,12.9z M2.4,11.4c0-0.1-0.1-0.2-0.2-0.2c-0.1,0-0.2,0.1-0.2,0.2c0,0-0.5,4.5-0.5,4.5l0.5,4.4
	c0,0.1,0.1,0.2,0.2,0.2c0.1,0,0.2-0.1,0.2-0.2L3,15.8L2.4,11.4L2.4,11.4z M9.7,7.3c-0.2,0-0.3,0.2-0.4,0.4l-0.4,8.2l0.4,5.3
	c0,0.2,0.2,0.4,0.4,0.4c0.2,0,0.3-0.2,0.4-0.4v0l0.4-5.3L10,7.6C10,7.4,9.8,7.3,9.7,7.3z M5.9,10.1c-0.1,0-0.3,0.1-0.3,0.3l-0.4,5.4
	l0.4,5.3c0,0.2,0.1,0.3,0.3,0.3c0.1,0,0.3-0.1,0.3-0.3l0.5-5.3l-0.5-5.4C6.2,10.2,6.1,10.1,5.9,10.1z M13.5,21.5
	c0.2,0,0.4-0.2,0.4-0.5l0.4-5.2L13.9,4.9c0-0.3-0.2-0.5-0.4-0.5c-0.2,0-0.4,0.2-0.4,0.5l-0.3,10.9L13,21
	C13,21.3,13.2,21.5,13.5,21.5z M21.2,21.5c0.3,0,0.6-0.3,0.6-0.6v0v0l0.2-5.1L21.8,3.2c0-0.3-0.3-0.6-0.6-0.6
	c-0.3,0-0.6,0.3-0.6,0.6l-0.2,12.6c0,0,0.2,5.1,0.2,5.1C20.6,21.2,20.9,21.5,21.2,21.5z M17.3,21.5c0.3,0,0.5-0.2,0.5-0.5v0l0.3-5.1
	l-0.3-11c0-0.3-0.2-0.5-0.5-0.5c-0.3,0-0.5,0.2-0.5,0.5l-0.3,11l0.3,5.1C16.8,21.3,17,21.5,17.3,21.5L17.3,21.5z M7.8,21.5
	c0.2,0,0.3-0.1,0.3-0.3l0.4-5.3l-0.4-5c0-0.2-0.1-0.3-0.3-0.3c-0.2,0-0.3,0.1-0.3,0.3l-0.4,5l0.4,5.3C7.5,21.3,7.6,21.5,7.8,21.5z
	 M4.1,21.2c0.1,0,0.2-0.1,0.2-0.2l0.5-5.1l-0.5-5.3c0-0.1-0.1-0.2-0.2-0.2c-0.1,0-0.2,0.1-0.2,0.2l-0.4,5.3l0.4,5.1
	C3.9,21.1,4,21.2,4.1,21.2L4.1,21.2z M19.3,4.7c-0.3,0-0.5,0.3-0.6,0.6l-0.2,10.6l0.2,5.1c0,0.3,0.2,0.6,0.6,0.6
	c0.3,0,0.5-0.3,0.6-0.6v0l0.3-5.1L19.8,5.3C19.8,4.9,19.6,4.7,19.3,4.7L19.3,4.7z M11.6,21.5c0.2,0,0.4-0.2,0.4-0.4l0.4-5.3
	L11.9,5.8c0-0.2-0.2-0.4-0.4-0.4c-0.2,0-0.4,0.2-0.4,0.4l-0.3,10.1l0.3,5.3C11.2,21.3,11.3,21.5,11.6,21.5z M15.9,21L15.9,21
	l0.3-5.2L15.9,4.6c0-0.3-0.2-0.5-0.5-0.5c-0.3,0-0.5,0.2-0.5,0.5l-0.3,11.3l0.3,5.2c0,0.3,0.2,0.5,0.5,0.5
	C15.6,21.5,15.8,21.3,15.9,21L15.9,21L15.9,21z M40.9,9.3c-0.8,0-1.5,0.2-2.2,0.5C38.2,4.3,33.9,0,28.6,0c-1.3,0-2.6,0.3-3.7,0.7
	c-0.4,0.2-0.5,0.4-0.6,0.7v19.4c0,0.4,0.3,0.7,0.6,0.7c0,0,15.8,0,15.9,0c3.2,0,5.7-2.7,5.7-6.1C46.6,12.1,44,9.3,40.9,9.3L40.9,9.3
	z M23.2,1.4c-0.3,0-0.6,0.3-0.6,0.7l-0.3,13.7l0.3,5c0,0.4,0.3,0.7,0.6,0.7c0.3,0,0.6-0.3,0.6-0.7v0l0.3-5L23.8,2.1
	C23.8,1.7,23.5,1.4,23.2,1.4L23.2,1.4z"/>
</svg>
