<?xml version="1.0" encoding="utf-8"?>
<!-- Generator: Adobe Illustrator 21.0.2, SVG Export Plug-In . SVG Version: 6.00 Build 0)  -->
<svg version="1.1" id="Layer_1" xmlns="http://www.w3.org/2000/svg" xmlns:xlink="http://www.w3.org/1999/xlink" x="0px" y="0px"
	 width="49.6px" height="75.3px" viewBox="0 0 49.6 75.3" style="enable-background:new 0 0 49.6 75.3;" xml:space="preserve">
<title>46</title>
<g>
	<path d="M47.4,0.4c-1.3-0.7-2.9-0.5-4.1,0.3L17.9,18.4H12c-6.6,0-12,5.4-12,12v14.4c0,6.6,5.4,12,12,12h5.9l25.4,17.7
		c1.8,1.3,4.3,0.8,5.6-1c0.5-0.7,0.7-1.5,0.7-2.3V3.9C49.6,2.4,48.7,1.1,47.4,0.4z M8,44.8V30.4c0-2.2,1.8-4,4-4h3.1v22.4H12
		C9.8,48.8,8,47,8,44.8z M41.6,63.6L23.1,50.7V24.5l18.5-12.9V63.6z"/>
</g>
</svg>
