<?xml version="1.0" encoding="utf-8"?>
<!-- Generator: Adobe Illustrator 21.0.2, SVG Export Plug-In . SVG Version: 6.00 Build 0)  -->
<svg version="1.1" id="Layer_1" xmlns="http://www.w3.org/2000/svg" xmlns:xlink="http://www.w3.org/1999/xlink" x="0px" y="0px"
	 width="27.2px" height="27.2px" viewBox="0 0 27.2 27.2" style="enable-background:new 0 0 27.2 27.2;" xml:space="preserve">
<style type="text/css">
	.st0{fill:#DBDBDB;}
</style>
<path class="st0" d="M13.6,0C6.1,0,0,6.1,0,13.6c0,7.5,6.1,13.6,13.6,13.6c7.5,0,13.6-6.1,13.6-13.6C27.2,6.1,21.1,0,13.6,0z
	 M19.4,18.9c-0.2,0.3-0.6,0.5-1,0.3c-0.5-0.3-1-0.5-1.5-0.8c-1.1-0.5-2.2-0.7-3.4-0.9c-0.7-0.1-1.3-0.1-2-0.1c-1,0-2.1,0.1-3.1,0.4
	C8.2,17.9,8,18,7.7,18c-0.5,0.1-0.8-0.1-0.9-0.6c-0.1-0.4,0.2-0.8,0.6-0.9c0.9-0.2,1.9-0.4,2.9-0.5c0.4,0,0.8-0.1,1.1-0.1
	c2-0.1,4,0.2,5.9,1c0.6,0.3,1.3,0.6,1.8,0.9C19.5,18.1,19.6,18.6,19.4,18.9z M20.9,15.7c-0.2,0.4-0.8,0.6-1.3,0.3
	c-1.7-1-3.5-1.6-5.5-1.8c-2-0.3-4.1-0.2-6.1,0.3c-0.2,0-0.4,0.1-0.5,0.2c-0.5,0.1-1-0.1-1.2-0.6c-0.2-0.5,0.1-1,0.7-1.2
	c1.2-0.4,2.4-0.6,3.7-0.6c0.4,0,0.8,0,1.2,0c2.3,0,4.6,0.4,6.8,1.3c0.6,0.3,1.3,0.6,1.9,1C21,14.6,21.2,15.2,20.9,15.7z M22.5,11.9
	c-0.4,0.4-0.9,0.6-1.5,0.3c-0.9-0.5-1.9-0.9-2.9-1.2c-1.2-0.3-2.4-0.6-3.6-0.7c-1-0.1-2-0.2-3-0.1c-1.5,0.1-3.1,0.2-4.6,0.7
	c-0.6,0.2-1.2-0.1-1.4-0.7C5.3,9.5,5.6,8.9,6.2,8.7C7,8.4,7.8,8.3,8.6,8.1C9.8,8,10.9,7.9,12,7.9c2.2,0,4.3,0.2,6.3,0.8
	c1.3,0.3,2.5,0.8,3.6,1.4c0.2,0.1,0.4,0.2,0.5,0.4C22.8,10.9,22.8,11.5,22.5,11.9z"/>
</svg>
